PathFileType  4	(X/Y/Z) C:\Users\antoi\Documents\MyRepositories\mobilecap\ResultsAnalysis
DataRate	CameraRate	NumFrames	NumMarkers	Units	OrigDataRate	OrigDataStartFrame	OrigNumFrames
100.0	100.0	5	51	mm	100.0	70	139
Frame#	Time	r_knee			r_shank_antsup			r_ankle			r_calc			r_5meta			r_toe			L_knee			L_shank_antsup			L_ankle			L_calc			L_5meta			L_toe			r_sh2			r_sh3			r_sh4			L_sh2			L_sh3			r_thigh1			r_thigh2			r_thigh3			r_thigh4			r_thigh5			L_thigh1			L_thigh2			L_thigh3			L_thigh4			r.ASIS			r.PSIS			L.ASIS			L.PSIS			C7			R_Shoulder			L_Shoulder			R_Sternum			L_Sternum			R_humerus			R_elbow_med			R_elbow_lat			R_forearm			R_wrist_radius			R_wrist_ulna			L_humerus			L_elbow_med			L_elbow_lat			L_forearm			L_wrist_radius			L_wrist_ulna			R_HJC			L_HJC			R_HJC_reg			L_HJC_reg			
		X1	Y1	Z1	X2	Y2	Z2	X3	Y3	Z3	X4	Y4	Z4	X5	Y5	Z5	X6	Y6	Z6	X7	Y7	Z7	X8	Y8	Z8	X9	Y9	Z9	X10	Y10	Z10	X11	Y11	Z11	X12	Y12	Z12	X13	Y13	Z13	X14	Y14	Z14	X15	Y15	Z15	X16	Y16	Z16	X17	Y17	Z17	X18	Y18	Z18	X19	Y19	Z19	X20	Y20	Z20	X21	Y21	Z21	X22	Y22	Z22	X23	Y23	Z23	X24	Y24	Z24	X25	Y25	Z25	X26	Y26	Z26	X27	Y27	Z27	X28	Y28	Z28	X29	Y29	Z29	X30	Y30	Z30	X31	Y31	Z31	X32	Y32	Z32	X33	Y33	Z33	X34	Y34	Z34	X35	Y35	Z35	X36	Y36	Z36	X37	Y37	Z37	X38	Y38	Z38	X39	Y39	Z39	X40	Y40	Z40	X41	Y41	Z41	X42	Y42	Z42	X43	Y43	Z43	X44	Y44	Z44	X45	Y45	Z45	X46	Y46	Z46	X47	Y47	Z47	X48	Y48	Z48	X49	Y49	Z49	X50	Y50	Z50	X51	Y51	Z51	

70	0.69000000	616.55786	518.45265	-35.00370	579.12691	441.00596	-23.31647	289.12660	227.09678	-81.20210	218.99807	254.51389	-129.53308	310.73039	65.46538	-77.23670	346.06208	68.89251	-138.47227	777.54212	529.17431	-327.17260	833.27480	420.72262	-324.94352	843.61185	92.48086	-283.02442	772.22000	54.61031	-243.49735	1018.26635	65.46994	-235.04400	1001.85558	33.10971	-299.59788	494.27931	365.53640	-26.37447	525.98422	499.69103	-16.89199	435.99140	428.24020	-30.20598	746.76440	409.37123	-353.04443	772.36686	291.50253	-341.81989	705.70754	830.68634	-12.47232	716.28617	722.71646	-17.33338	657.13673	692.27646	-1.77376	591.48673	819.78319	-25.52628	606.90953	706.36201	-21.42975	786.15057	859.84386	-357.92194	820.23420	725.83736	-350.33067	673.63975	826.80422	-375.26980	716.48689	693.75426	-365.69077	736.73930	1028.93150	-59.19525	550.34420	1070.77749	-155.83141	764.51910	1040.47669	-319.65815	558.87286	1073.72788	-259.74713	537.28394	1578.02796	-219.01280	597.72724	1534.35018	-40.97285	614.76593	1538.02911	-379.49808	687.94773	1511.56963	-179.67164	691.87331	1508.82460	-233.38023	644.46648	1278.79033	64.02204	618.84145	1169.50995	10.89593	648.58027	1189.70866	86.43976	775.07299	1088.22020	80.39832	857.69154	1010.05205	55.26517	826.92630	993.49750	84.18407	592.06306	1273.79561	-457.03122	523.42350	1196.00530	-398.05193	558.11957	1190.88933	-460.60914	596.08729	1021.91773	-460.51730	617.24256	924.48533	-439.58622	582.81943	922.09824	-461.45187	653.93559	949.97086	-79.56338	679.62386	960.13311	-308.24767	668.63204	955.93624	-104.22228	682.78074	960.83556	-276.61775	
71	0.70000000	643.37094	518.31269	-33.20289	605.11496	442.05703	-21.81150	309.58866	238.07142	-80.10465	242.21561	270.78910	-128.61663	318.66692	74.26697	-76.95531	356.78806	74.86867	-136.67305	783.57942	530.19915	-327.79264	837.82833	420.93338	-325.32766	843.84233	92.44784	-282.96187	772.24477	54.62106	-243.49942	1018.35143	64.96795	-234.69234	1001.85822	33.01901	-299.46535	518.04643	369.07568	-24.95005	553.51181	502.08781	-15.07749	461.63178	433.06927	-28.55949	751.23733	410.61871	-353.65363	775.34299	292.49179	-342.22312	721.18779	831.97162	-11.82493	735.03165	724.26378	-15.52115	676.48231	692.27389	-0.52170	607.75214	817.66545	-26.49105	626.53799	704.90428	-21.14131	797.10117	861.16872	-359.31701	829.34590	726.82082	-351.12150	683.69769	829.18514	-376.40894	725.23362	695.90902	-366.55004	748.50430	1029.80103	-59.99869	562.07592	1071.62523	-156.02061	776.34181	1043.02181	-320.47395	570.54747	1075.70922	-259.83206	549.62079	1579.69585	-220.41259	609.41000	1536.39874	-41.95647	628.13595	1539.48201	-380.41299	700.04353	1513.20958	-180.40975	704.21414	1510.39205	-234.01794	653.61087	1280.05860	62.83113	628.05140	1171.16857	8.78818	656.83156	1190.95765	84.98085	782.20578	1087.97116	79.98010	864.09416	1008.87240	55.53474	832.81247	992.56383	84.06329	609.19453	1275.09253	-458.69097	540.41206	1196.25657	-400.91972	576.12012	1191.78566	-463.00627	616.76852	1023.38598	-462.68082	639.39840	926.33140	-441.68584	605.12396	923.38630	-463.87871	666.01031	950.69520	-80.76228	691.46861	962.51911	-309.40398	680.87570	956.28332	-105.80087	694.94534	963.07172	-278.20907	
72	0.71000000	670.36754	518.89155	-31.79087	631.51820	443.65844	-20.77405	331.23186	248.98931	-79.36028	267.06196	286.19175	-128.27567	328.33098	83.74546	-76.62963	369.38643	81.22956	-134.50313	788.66816	531.03215	-328.45678	841.55823	421.06574	-325.82754	843.88534	92.44614	-282.89194	772.18639	54.58089	-243.50484	1018.28312	64.75980	-234.43592	1001.80407	33.11508	-299.37080	542.38572	373.00381	-23.83511	581.26598	504.81232	-13.71784	487.81126	437.95255	-27.16616	754.81198	411.68532	-354.06999	777.57981	293.35349	-342.43200	736.57931	833.57045	-11.28924	753.75102	726.18982	-14.11508	695.97289	692.58400	0.56476	624.04112	815.80851	-27.28197	646.15175	703.54590	-21.18440	807.40785	862.08010	-360.48326	837.51366	727.36694	-351.67481	693.26128	831.47871	-377.32565	733.11628	697.83098	-367.26754	759.95579	1030.87669	-60.65248	573.60466	1072.64082	-156.32851	788.04826	1045.26400	-321.14280	582.10147	1077.65194	-260.00273	561.82642	1581.38810	-221.67697	620.95790	1538.48282	-42.82730	641.36832	1541.00443	-381.15381	712.00946	1514.86471	-180.97624	716.43364	1511.97556	-234.49377	662.59094	1281.37950	61.73631	637.11175	1172.87904	6.68505	664.88991	1192.27475	83.59454	789.04327	1087.72861	79.66212	870.13328	1007.66438	55.90808	838.27108	991.61188	84.01360	626.37968	1276.56187	-460.32142	557.47134	1196.58267	-403.87857	594.23918	1192.84317	-465.44814	637.70791	1025.11005	-464.87738	661.88057	928.45967	-443.80256	627.84180	924.95299	-466.33008	677.71882	951.65500	-81.74441	703.14154	964.68717	-310.33591	692.77915	956.81512	-107.16047	706.90969	965.15376	-279.56739	
73	0.72000000	697.31705	520.22578	-30.74915	658.06335	445.80547	-20.12884	353.83910	259.57546	-79.01279	293.04878	300.24024	-128.63374	340.14361	93.52922	-76.12261	383.96516	87.67589	-131.97247	793.04578	531.72267	-329.18440	844.69993	421.13560	-326.44542	843.83288	92.46126	-282.84670	772.07360	54.54680	-243.52666	1018.12414	64.70977	-234.28698	1001.72441	33.25818	-299.32548	567.07778	377.24067	-22.98283	608.96984	507.86283	-12.80079	514.22919	442.84452	-26.04150	757.76778	412.61043	-354.41314	779.31696	294.11045	-342.57975	752.03684	835.54160	-10.93054	772.51882	728.55249	-13.15519	715.68419	693.30951	1.49676	640.44720	814.32775	-27.87839	665.75098	702.39082	-21.50929	817.06134	862.62396	-361.39649	844.83920	727.54369	-352.01239	702.45134	833.70974	-378.04219	740.25369	699.54556	-367.88103	771.19409	1032.20339	-61.14592	584.98250	1073.82153	-156.75008	799.62675	1047.12907	-321.65644	593.57335	1079.54263	-260.27437	573.90130	1583.07715	-222.81334	632.35811	1540.56790	-43.59800	654.45666	1542.57349	-381.73796	723.85685	1516.51642	-181.38366	728.53035	1513.55032	-234.81771	671.42954	1282.72204	60.74636	646.02299	1174.60089	4.60828	672.77558	1193.63287	82.29349	795.61342	1087.48947	79.44746	875.84072	1006.42272	56.37408	843.36401	990.65664	84.05162	643.56930	1278.19003	-461.91835	574.60717	1196.96563	-406.89685	612.44712	1194.04438	-467.91031	658.84875	1027.08986	-467.08909	684.58020	930.85882	-445.91317	650.92550	926.79437	-468.78219	689.12373	952.88905	-82.46021	714.66083	966.57460	-311.00777	704.41685	957.51130	-108.26803	718.72272	967.04151	-280.65820	
74	0.73000000	724.02016	522.27874	-30.06739	684.50998	448.45423	-19.80688	377.18192	269.50726	-79.07392	319.57265	312.49224	-129.73662	354.55223	103.18909	-75.27594	400.68110	93.94332	-129.12523	796.98768	532.32980	-329.95229	847.49739	421.17576	-327.13026	843.74414	92.48794	-282.83878	771.92009	54.54307	-243.57266	1017.91276	64.73044	-234.22792	1001.63160	33.37929	-299.32436	591.95490	381.65462	-22.38719	636.37766	511.20064	-12.27567	540.61654	447.67922	-25.19901	760.39584	413.45142	-354.77181	780.80182	294.80527	-342.76881	767.68846	837.91144	-10.79866	791.40361	731.38382	-12.65542	735.67000	694.52949	2.28295	657.03784	813.29287	-28.26854	685.37698	701.58298	-21.98431	826.13575	862.89282	-362.06813	851.52643	727.46001	-352.16850	711.40157	835.89791	-378.58601	746.83622	701.10536	-368.39618	782.33555	1033.78707	-61.50560	596.25729	1075.15809	-157.24408	811.04219	1048.61516	-322.03794	604.97301	1081.38632	-260.63219	585.85364	1584.74682	-223.83059	643.61305	1542.62341	-44.27791	667.40162	1544.16427	-382.18956	735.59765	1518.14971	-181.65520	740.50355	1515.09662	-235.01165	680.14273	1284.05735	59.86700	654.78626	1176.29177	2.59191	680.50514	1195.00264	81.08930	801.94200	1087.24454	79.33744	881.24893	1005.13675	56.92687	848.16242	989.70712	84.19694	660.71520	1279.96008	-463.47834	591.82171	1197.38942	-409.94390	630.71705	1195.36964	-470.37048	680.14803	1029.31237	-469.29319	707.41277	933.51610	-447.99282	674.32060	928.89620	-471.21413	700.31275	954.39999	-82.90312	726.01977	968.17720	-311.42743	715.87474	958.35414	-109.12690	730.40339	968.73782	-281.48171	
